<svg width="180" height="60" viewBox="0 0 180 60" fill="none" xmlns="http://www.w3.org/2000/svg">
<g clip-path="url(#clip0_2404_9940)">
<path d="M0.00533078 29.9597C0.00533078 24.8472 -0.00776211 19.7342 0.00533078 14.6217C0.0304691 6.08509 6.08776 0.0131283 14.5819 0.00632002C24.8694 -0.00275772 35.1569 -0.00275772 45.4445 0.00632002C53.6495 0.0126046 59.8754 5.96463 59.9702 14.177C60.0921 24.6915 60.0921 35.2072 59.9702 45.7241C59.8823 53.8778 53.6301 59.9351 45.446 59.9691C35.1009 60.011 24.7554 60.0088 14.4096 59.9623C6.13909 59.921 0.0273273 53.7301 0.00742609 45.4732C-0.00304822 40.3015 0.0058545 35.1325 0.00533078 29.9597Z" fill="white"/>
<path d="M87.2753 16.7261C87.2795 15.4954 86.5154 15.6986 85.7728 15.6567C84.9678 15.61 84.4829 15.7342 84.5028 16.7528C84.5609 19.8296 84.5353 22.9091 84.5065 25.9864C84.5033 26.3735 84.7804 26.8856 84.2399 27.1857C80.4801 21.6029 72.9245 22.0847 69.3386 25.3145C64.8273 29.3791 64.6466 37.8538 69.0401 42.1352C73.3817 46.3658 79.8003 45.6734 84.5227 40.2907C84.5227 41.4392 84.5876 42.4054 84.5054 43.3591C84.4122 44.4511 84.9705 44.594 85.8629 44.5752C86.7103 44.5558 87.2822 44.504 87.2769 43.3822C87.2417 34.4958 87.2411 25.6104 87.2753 16.7261ZM79.5767 41.887C76.6931 43.1303 73.233 42.463 71.0271 40.2933C68.188 37.4956 67.8041 31.7876 70.2263 28.3693C72.3594 25.3595 76.7377 24.3964 80.2198 26.1697C82.9311 27.5523 84.5175 30.4422 84.4986 34.721C84.3404 37.5333 83.0401 40.3949 79.5778 41.8885L79.5767 41.887Z" fill="white"/>
<path d="M176.175 25.5703C171.954 21.4686 165.367 22.1661 160.749 27.4216C160.749 23.8504 160.722 20.5086 160.764 17.1699C160.776 16.1298 160.598 15.6019 159.35 15.615C158.171 15.6281 158.054 16.1225 158.056 17.0814C158.082 25.7318 158.082 34.3822 158.056 43.0325C158.053 44.058 158.184 44.6068 159.445 44.6037C160.797 44.5995 160.789 43.8705 160.754 42.9346C160.728 42.1873 160.749 41.4389 160.749 40.3239C165.118 45.55 171.695 46.3251 175.941 42.3742C180.48 38.1468 180.596 29.8663 176.175 25.5703ZM168.616 42.5067C164 42.4345 160.746 38.8653 160.75 33.8822C160.754 28.809 164.088 25.2409 168.788 25.2833C173.459 25.3241 176.624 28.8006 176.61 33.8764C176.597 38.9994 173.28 42.5795 168.616 42.5067Z" fill="white"/>
<path d="M136.119 24.6184C136.131 23.3876 135.634 23.2143 134.581 23.1755C133.357 23.13 133.272 23.7516 133.324 24.6791C133.371 25.4998 133.334 26.3257 133.334 27.5072C128.882 21.1702 121.159 22.3695 117.904 25.5171C113.604 29.6728 113.62 38.1826 117.93 42.2555C121.343 45.4811 128.966 46.5359 133.333 40.1371C133.333 41.4988 133.392 42.4163 133.318 43.3229C133.232 44.3651 133.705 44.5898 134.643 44.5798C135.6 44.5693 136.126 44.429 136.116 43.26C136.066 37.0463 136.067 30.8324 136.119 24.6184ZM125.354 42.508C120.725 42.5022 117.512 39.0336 117.433 33.9578C117.353 28.8442 120.592 25.305 125.362 25.294C129.971 25.2825 133.317 28.8552 133.329 33.7991C133.342 38.8582 129.995 42.5132 125.354 42.508Z" fill="white"/>
<path d="M111.453 43.0842C111.431 36.9913 111.431 30.8987 111.453 24.8065C111.456 23.8555 111.458 23.1636 110.127 23.183C108.851 23.2008 108.7 23.8047 108.759 24.8065C108.805 25.5837 108.768 26.3651 108.768 27.4371C104.362 22.211 97.5879 21.4898 93.3871 25.5198C88.9198 29.8064 88.9612 38.0948 93.4709 42.306C97.7974 46.3454 104.352 45.575 108.771 40.243C108.771 41.4282 108.821 42.2379 108.759 43.0386C108.677 44.1123 108.98 44.5993 110.189 44.6014C111.398 44.6035 111.457 44.0059 111.453 43.0842ZM97.9414 41.9813C94.0837 40.6091 92.0559 36.1492 93.1431 31.43C94.1046 27.2601 97.5297 24.8489 101.772 25.358C105.986 25.8634 108.752 29.2586 108.749 33.9213C108.741 40.087 103.535 43.9709 97.9398 41.9813H97.9414Z" fill="white"/>
<path d="M142.105 26.6954C143.788 24.2046 145.748 23.1478 148.173 22.8932C148.864 22.8205 149.549 22.7199 149.386 23.7312C149.27 24.4455 150.006 25.6197 148.47 25.6857C148.296 25.693 148.123 25.7098 147.95 25.7281C144.054 26.1403 142.178 28.154 142.118 32.1253C142.066 35.6599 142.101 39.1955 142.108 42.7311C142.108 43.7188 142.308 44.6515 140.694 44.6096C139.231 44.5719 139.333 43.7848 139.337 42.8133C139.351 36.8429 139.349 30.8736 139.331 24.9054C139.326 23.8715 139.344 23.1891 140.745 23.1687C142.209 23.1467 142.173 23.9166 142.111 24.9054C142.084 25.305 142.105 25.7098 142.105 26.6954Z" fill="white"/>
<path d="M154.965 33.8501C154.965 36.9872 154.917 40.1248 154.99 43.2597C155.017 44.4171 154.519 44.591 153.54 44.5832C152.617 44.5753 152.192 44.3768 152.198 43.3262C152.24 37.0532 152.248 30.7796 152.191 24.5065C152.181 23.3371 152.676 23.2067 153.64 23.1789C154.746 23.1464 155.001 23.589 154.985 24.6134C154.927 27.6923 154.965 30.7717 154.965 33.8501Z" fill="white"/>
<path d="M155.619 17.1124C155.486 18.2441 154.939 19.1025 153.72 19.1664C152.416 19.236 151.647 18.4332 151.615 17.1763C151.585 15.977 152.328 15.2218 153.543 15.1992C154.758 15.1767 155.419 15.9115 155.619 17.1124Z" fill="white"/>
<path d="M43.0319 32.1372C42.5014 29.2819 41.0738 26.8319 39.512 24.4459C37.722 21.4989 35.3265 19.1312 32.5278 17.149C28.3443 13.4877 23.3549 11.5651 17.9999 10.3936C19.0473 11.431 19.5187 13.0996 21.2312 13.3321C25.2062 13.871 28.8293 15.3191 32.1915 17.4695C34.8698 19.5968 37.4748 21.7907 39.0616 24.911C39.0939 24.9889 39.1317 25.0646 39.1748 25.1372C39.3581 25.6861 39.5634 26.2286 39.7215 26.7848C41.8729 34.3462 37.6974 40.8775 30.1428 41.7866C27.09 42.1532 24.0294 42.4769 20.9914 42.9388C19.7077 43.1352 19.4364 42.7571 19.4448 41.5316C19.4946 34.2745 19.4108 27.0163 19.4972 19.7597C19.5234 17.6177 18.0523 16.7934 16.6058 15.2201V17.6449C16.6058 26.5282 16.7178 35.4135 16.534 44.2926C16.4816 46.7598 17.5862 48.0937 19.4872 49.5392C19.3139 47.4595 20.5829 46.8389 22.0445 46.4131C22.6002 46.2513 23.1632 46.0842 23.734 46.0109C27.3011 45.5553 30.8959 45.2683 34.4346 44.655C40.627 43.5846 44.1768 38.3008 43.0319 32.1372Z" fill="black"/>
</g>
<defs>
<clipPath id="clip0_2404_9940">
<rect width="179.419" height="60" fill="white"/>
</clipPath>
</defs>
</svg>
